<svg width="1940" height="725" viewBox="0 0 1940 725" fill="none" xmlns="http://www.w3.org/2000/svg">
<path d="M137.694 491.172V249.815H185.358V283.613C195.758 269.747 206.447 259.925 217.424 254.148C228.69 248.081 240.823 245.048 253.823 245.048C270.289 245.048 284.299 248.659 295.854 255.881C307.698 262.814 315.498 273.069 319.253 286.647C333.986 258.914 358.396 245.048 392.484 245.048C419.349 245.048 439.426 252.703 452.715 268.014C466.003 283.324 472.647 305.135 472.647 333.445V491.172H424.983V341.244C424.983 322.756 421.227 308.89 413.716 299.646C406.206 290.113 395.517 285.347 381.651 285.347C367.496 285.347 356.085 289.969 347.419 299.213C340.486 306.724 335.575 316.401 332.686 328.245C330.086 339.8 328.786 354.677 328.786 372.877V491.172H281.555V341.244C281.555 323.334 277.655 309.612 269.855 300.079C262.056 290.258 251.223 285.347 237.356 285.347C230.423 285.347 224.068 286.647 218.291 289.246C212.513 291.846 207.602 295.602 203.558 300.513C197.202 307.446 192.58 316.545 189.692 327.812C186.803 339.078 185.358 354.1 185.358 372.877V491.172H137.694ZM639.2 495.939C615.801 495.939 594.857 490.594 576.369 479.906C558.17 469.217 543.87 454.34 533.471 435.274C523.36 415.919 518.305 393.965 518.305 369.41C518.305 345.433 523.36 324.056 533.471 305.279C543.87 286.502 558.17 271.769 576.369 261.081C594.857 250.392 615.801 245.048 639.2 245.048C662.599 245.048 683.398 250.392 701.598 261.081C720.086 271.769 734.385 286.502 744.496 305.279C754.896 324.056 760.095 345.433 760.095 369.41C760.095 393.676 755.04 415.486 744.929 434.841C734.819 453.907 720.519 468.928 702.031 479.906C683.832 490.594 662.888 495.939 639.2 495.939ZM639.2 454.34C653.066 454.34 665.488 450.729 676.465 443.507C687.443 436.285 695.965 426.175 702.031 413.175C708.386 400.176 711.564 385.587 711.564 369.41C711.564 353.811 708.386 339.8 702.031 327.378C695.965 314.668 687.443 304.701 676.465 297.479C665.488 290.258 653.066 286.647 639.2 286.647C625.334 286.647 612.912 290.258 601.935 297.479C590.958 304.413 582.291 314.234 575.936 326.945C569.869 339.367 566.836 353.522 566.836 369.41C566.836 385.876 569.869 400.609 575.936 413.608C582.291 426.319 590.958 436.285 601.935 443.507C612.912 450.729 625.334 454.34 639.2 454.34ZM879.166 491.172C860.389 491.172 846.234 486.839 836.701 478.173C827.168 469.506 822.402 454.918 822.402 434.408V289.68H785.136V249.815H822.402V160.551H870.067V249.815H920.331V289.68H870.067V421.841C870.067 431.952 871.511 439.318 874.4 443.941C877.288 448.563 883.933 450.874 894.332 450.874H919.898V491.172H879.166ZM1040.39 491.172C1021.61 491.172 1007.46 486.839 997.925 478.173C988.392 469.506 983.626 454.918 983.626 434.408V289.68H946.361V249.815H983.626V160.551H1031.29V249.815H1081.56V289.68H1031.29V421.841C1031.29 431.952 1032.74 439.318 1035.62 443.941C1038.51 448.563 1045.16 450.874 1055.56 450.874H1081.12V491.172H1040.39ZM1208.11 495.939C1172.87 495.939 1148.46 482.795 1134.88 456.507C1131.13 448.996 1128.38 440.33 1126.65 430.508C1125.21 420.686 1124.48 407.831 1124.48 391.943V249.815H1172.15V392.376C1172.15 416.93 1176.34 433.974 1184.72 443.507C1192.23 451.596 1203.49 455.64 1218.51 455.64C1235.85 455.64 1249.28 450.151 1258.81 439.174C1265.17 432.241 1269.79 422.852 1272.68 411.008C1275.57 399.164 1277.01 383.132 1277.01 362.91V249.815H1324.68V491.172H1277.01V456.94C1266.61 470.806 1255.92 480.772 1244.95 486.839C1234.26 492.905 1221.98 495.939 1208.11 495.939ZM1381.79 491.172V249.815H1429.45V283.613C1439.85 269.747 1450.54 259.925 1461.52 254.148C1472.78 248.081 1484.92 245.048 1497.92 245.048C1514.38 245.048 1528.39 248.659 1539.95 255.881C1551.79 262.814 1559.59 273.069 1563.35 286.647C1578.08 258.914 1602.49 245.048 1636.58 245.048C1663.44 245.048 1683.52 252.703 1696.81 268.014C1710.1 283.324 1716.74 305.135 1716.74 333.445V491.172H1669.08V341.244C1669.08 322.756 1665.32 308.89 1657.81 299.646C1650.3 290.113 1639.61 285.347 1625.74 285.347C1611.59 285.347 1600.18 289.969 1591.51 299.213C1584.58 306.724 1579.67 316.401 1576.78 328.245C1574.18 339.8 1572.88 354.677 1572.88 372.877V491.172H1525.65V341.244C1525.65 323.334 1521.75 309.612 1513.95 300.079C1506.15 290.258 1495.32 285.347 1481.45 285.347C1474.52 285.347 1468.16 286.647 1462.38 289.246C1456.61 291.846 1451.69 295.602 1447.65 300.513C1441.3 307.446 1436.67 316.545 1433.78 327.812C1430.9 339.078 1429.45 354.1 1429.45 372.877V491.172H1381.79Z" fill="#1E2124"/>
<path d="M1794.46 495.939C1785.8 495.939 1778.43 492.905 1772.36 486.839C1766.3 480.772 1763.26 473.551 1763.26 465.173C1763.26 457.084 1766.3 450.151 1772.36 444.374C1778.72 438.596 1786.09 435.708 1794.46 435.708C1802.26 435.708 1809.05 438.596 1814.83 444.374C1820.61 450.151 1823.5 457.084 1823.5 465.173C1823.5 473.551 1820.61 480.772 1814.83 486.839C1809.05 492.905 1802.26 495.939 1794.46 495.939Z" fill="#FF2E00"/>
<path fill-rule="evenodd" clip-rule="evenodd" d="M1939.58 0.715698H0.423828V666.252H1137.52V647.1H19.5759V19.8678H1920.42V647.1H1788.69V666.252H1939.58V0.715698Z" fill="#1E2124"/>
<path d="M1217.74 697.461H1203.61L1235.21 609.783H1250.26L1281.87 697.461H1267.85L1261.07 677.696H1224.52L1217.74 697.461ZM1242.8 624.147L1228.66 665.745H1256.93L1242.8 624.147ZM1290.73 697.461V633.455H1303.37V642.418C1306.21 638.664 1309.04 636.021 1311.87 634.489C1314.71 632.957 1317.93 632.191 1321.53 632.191C1331.1 632.191 1337.58 635.638 1340.95 642.533C1342.25 645.061 1343.05 647.666 1343.36 650.347C1343.67 652.952 1343.82 656.093 1343.82 659.77V697.461H1331.18V659.655C1331.18 653.143 1330.07 648.623 1327.85 646.095C1325.78 643.95 1322.79 642.878 1318.88 642.878C1314.21 642.878 1310.61 644.333 1308.08 647.244C1306.4 649.083 1305.17 651.573 1304.41 654.714C1303.72 657.855 1303.37 662.106 1303.37 667.469V697.461H1290.73ZM1376.78 698.725C1370.5 698.725 1365.44 697.078 1361.61 693.784C1357.78 690.413 1355.87 685.855 1355.87 680.109C1355.87 674.211 1358.17 669.576 1362.76 666.205C1366.21 663.677 1371.15 661.8 1377.59 660.574L1398.5 656.552C1398.42 652.109 1397.24 648.7 1394.94 646.325C1392.41 643.797 1389.04 642.533 1384.83 642.533C1381.38 642.533 1378.35 643.529 1375.75 645.521C1373.22 647.436 1371.61 650.041 1370.92 653.335H1358.4C1359.47 646.593 1362.5 641.384 1367.47 637.707C1372.45 634.029 1378.28 632.191 1384.94 632.191C1388.7 632.191 1392.22 632.765 1395.51 633.915C1398.88 634.987 1401.72 636.596 1404.02 638.741C1407.08 641.575 1409 644.908 1409.76 648.738C1410.61 652.569 1411.03 656.974 1411.03 661.953V697.461H1398.39V688.038C1396.62 691.026 1394.4 693.363 1391.72 695.048C1387.89 697.5 1382.91 698.725 1376.78 698.725ZM1379.31 688.268C1382.68 688.268 1385.75 687.579 1388.5 686.2C1392.26 684.285 1394.86 681.757 1396.32 678.616C1397.85 675.398 1398.62 671.261 1398.62 666.205L1380.57 669.767C1376.13 670.687 1372.91 672.066 1370.92 673.904C1369.31 675.513 1368.51 677.466 1368.51 679.765C1368.51 682.446 1369.47 684.553 1371.38 686.085C1373.37 687.541 1376.02 688.268 1379.31 688.268ZM1440.44 697.461C1435.46 697.461 1431.71 696.312 1429.18 694.014C1426.65 691.716 1425.39 687.847 1425.39 682.408V609.783H1438.03V679.305C1438.03 681.986 1438.45 683.902 1439.29 685.051C1440.14 686.2 1441.86 686.774 1444.46 686.774H1448.03V697.461H1440.44ZM1459.3 721.133V710.102H1465.85C1468.37 710.102 1470.21 709.757 1471.36 709.067C1472.59 708.378 1473.7 706.731 1474.69 704.126L1477.22 697.117L1452.98 633.455H1466.76L1483.89 681.833L1499.63 633.455H1513.3L1486.64 707.574C1484.81 712.706 1482.62 716.23 1480.09 718.146C1477.57 720.137 1474 721.133 1469.41 721.133H1459.3ZM1543.03 697.461C1538.05 697.461 1534.29 696.312 1531.76 694.014C1529.24 691.716 1527.97 687.847 1527.97 682.408V644.027H1518.09V633.455H1527.97V609.783H1540.61V633.455H1553.94V644.027H1540.61V679.075C1540.61 681.757 1541 683.71 1541.76 684.936C1542.53 686.162 1544.29 686.774 1547.05 686.774H1553.83V697.461H1543.03ZM1578.2 697.461H1565.56V633.455H1578.2V697.461ZM1571.88 624.492C1569.58 624.492 1567.59 623.726 1565.9 622.193C1564.22 620.661 1563.37 618.746 1563.37 616.448C1563.37 614.15 1564.22 612.234 1565.9 610.702C1567.59 609.17 1569.58 608.404 1571.88 608.404C1574.25 608.404 1576.24 609.17 1577.85 610.702C1579.54 612.234 1580.38 614.15 1580.38 616.448C1580.38 618.746 1579.54 620.661 1577.85 622.193C1576.24 623.726 1574.25 624.492 1571.88 624.492ZM1622.46 698.725C1616.25 698.725 1610.74 697.308 1605.91 694.474C1601.16 691.639 1597.45 687.694 1594.77 682.638C1592.08 677.505 1590.74 671.683 1590.74 665.171C1590.74 658.812 1592.08 653.143 1594.77 648.164C1597.45 643.184 1601.16 639.277 1605.91 636.443C1610.74 633.608 1616.25 632.191 1622.46 632.191C1629.89 632.191 1636.17 634.106 1641.31 637.937C1646.51 641.767 1649.89 646.9 1651.42 653.335H1637.86C1636.71 650.041 1634.79 647.474 1632.11 645.636C1629.43 643.797 1626.21 642.878 1622.46 642.878C1618.78 642.878 1615.53 643.835 1612.69 645.751C1609.86 647.589 1607.64 650.194 1606.03 653.565C1604.42 656.935 1603.61 660.804 1603.61 665.171C1603.61 669.691 1604.42 673.674 1606.03 677.122C1607.64 680.569 1609.86 683.25 1612.69 685.166C1615.53 687.081 1618.78 688.038 1622.46 688.038C1626.44 688.038 1629.81 687.004 1632.57 684.936C1635.41 682.791 1637.28 679.956 1638.2 676.432H1651.88C1650.42 683.327 1647.01 688.766 1641.65 692.75C1636.36 696.734 1629.97 698.725 1622.46 698.725ZM1681.91 698.725C1675.63 698.725 1670.57 697.078 1666.74 693.784C1662.91 690.413 1660.99 685.855 1660.99 680.109C1660.99 674.211 1663.29 669.576 1667.89 666.205C1671.34 663.677 1676.28 661.8 1682.71 660.574L1703.63 656.552C1703.55 652.109 1702.36 648.7 1700.06 646.325C1697.54 643.797 1694.16 642.533 1689.95 642.533C1686.5 642.533 1683.48 643.529 1680.87 645.521C1678.35 647.436 1676.74 650.041 1676.05 653.335H1663.52C1664.59 646.593 1667.62 641.384 1672.6 637.707C1677.58 634.029 1683.4 632.191 1690.07 632.191C1693.82 632.191 1697.34 632.765 1700.64 633.915C1704.01 634.987 1706.84 636.596 1709.14 638.741C1712.21 641.575 1714.12 644.908 1714.89 648.738C1715.73 652.569 1716.15 656.974 1716.15 661.953V697.461H1703.51V688.038C1701.75 691.026 1699.53 693.363 1696.85 695.048C1693.02 697.5 1688.04 698.725 1681.91 698.725ZM1684.44 688.268C1687.81 688.268 1690.87 687.579 1693.63 686.2C1697.38 684.285 1699.99 681.757 1701.44 678.616C1702.97 675.398 1703.74 671.261 1703.74 666.205L1685.7 669.767C1681.26 670.687 1678.04 672.066 1676.05 673.904C1674.44 675.513 1673.63 677.466 1673.63 679.765C1673.63 682.446 1674.59 684.553 1676.51 686.085C1678.5 687.541 1681.14 688.268 1684.44 688.268Z" fill="#1E2124"/>
</svg>
